<svg xmlns="http://www.w3.org/2000/svg" viewBox="0 0 401.59 108.48"><defs><style>.cls-1{fill:#231f20;}.cls-2{fill:#034ea2;}</style></defs><g id="Layer_2" data-name="Layer 2"><g id="Layer_1-2" data-name="Layer 1"><path class="cls-1" d="M339.08,14.63v3.83H326.23a15.68,15.68,0,0,0-11.71-5c-8.29,0-15,6-15,13.42s6.72,13.43,15,13.43a15.67,15.67,0,0,0,11.8-5.15h12.76V42.9H307.65v6.71h31.43v13h7.72v-48ZM314.52,33.91a7.3,7.3,0,0,1-7.5-7.07,7.51,7.51,0,0,1,15,0A7.29,7.29,0,0,1,314.52,33.91Zm14.93-5.82c0-.41.07-.83.07-1.25a12.21,12.21,0,0,0-.07-1.35h9.63v2.6Z"/><path class="cls-1" d="M287.75,23.87v-9.3H280V35.5h-5.4l.05-17.09c-.05-2.33-2.65-2.11-2.65-2.11l-26.17-.11v6.49h21V35.5H259.2v-10h-7.89v10h-7.79v7h12a13.76,13.76,0,0,0-2.73,8.17c0,8.23,7.47,14.91,16.67,14.91s16.67-6.68,16.67-14.91a13.69,13.69,0,0,0-2.73-8.17h4.34V30.52H294V23.87ZM269.47,59.36a9,9,0,0,1-9.25-8.72,8.75,8.75,0,0,1,6-8.17h6.43a8.76,8.76,0,0,1,6,8.17A9,9,0,0,1,269.47,59.36Z"/><path class="cls-1" d="M168.91,14.68v6.49H145.23V14.94h-7.78l0,23a2.15,2.15,0,0,0,2.21,2.24h36.75V14.68Zm.31,19h-24V27.71h24Z"/><path class="cls-1" d="M144.72,88V77.5h3V88a7,7,0,0,0,.35,2.58,2.64,2.64,0,0,0,4.69,0,7.09,7.09,0,0,0,.34-2.58V77.5h3V88a10.45,10.45,0,0,1-.7,4.24c-.88,1.86-2.54,2.78-5,2.78s-4.13-.92-5-2.78A10.29,10.29,0,0,1,144.72,88Z"/><path class="cls-1" d="M157.16,89.3H160a3.85,3.85,0,0,0,.53,1.75A2.78,2.78,0,0,0,163,92.11a4.55,4.55,0,0,0,1.71-.28,2,2,0,0,0,1.24-2,1.54,1.54,0,0,0-.62-1.31,5.87,5.87,0,0,0-1.93-.8l-1.51-.41a8.64,8.64,0,0,1-3.06-1.3,4.51,4.51,0,0,1-1.43-3.7,5.44,5.44,0,0,1,1.38-3.81A5.27,5.27,0,0,1,162.86,77a5.3,5.3,0,0,1,5.49,5.59H165.5a2.59,2.59,0,0,0-1.12-2.2,3.28,3.28,0,0,0-1.73-.42,2.78,2.78,0,0,0-1.82.55,1.89,1.89,0,0,0-.69,1.56,1.55,1.55,0,0,0,.67,1.36,7.4,7.4,0,0,0,1.85.71l2.45.7a5.88,5.88,0,0,1,2.43,1.25,4.55,4.55,0,0,1,1.27,3.48,5.4,5.4,0,0,1-1.49,3.89,5.55,5.55,0,0,1-4.2,1.54,6,6,0,0,1-4.37-1.52A5.53,5.53,0,0,1,157.16,89.3Z"/><path class="cls-1" d="M177.31,77.5H174L168.9,94.57H172l1-3.51h5.23l.92,3.51h3.21Zm-3.53,10.62,1.83-6.72,1.77,6.72Z"/><path class="cls-1" d="M183.85,94.57V77.5H187l5.65,11.92V77.5h2.77V94.57h-3l-5.8-12.12V94.57Z"/><path class="cls-1" d="M208.51,90.93l2.56-13.43h4.27V94.57h-2.77V83c0-.33,0-.79,0-1.39s0-1.06,0-1.39L209.9,94.57H207l-2.67-14.33c0,.33,0,.79,0,1.39s0,1.06,0,1.39V94.57h-2.77V77.5h4.32Z"/><path class="cls-1" d="M225.4,77.5v3h-5.78v3.63h5.6v3h-5.6V91.5h5.59v3.07h-8.49V77.5Z"/><path class="cls-1" d="M226.34,77.5h9.77v3h-3.38v14h-3v-14h-3.4Z"/><path class="cls-1" d="M244.71,87.64c2.21-.1,3.3-2.1,3.64-2.88a6,6,0,0,0,.51-2.39,5.54,5.54,0,0,0-.27-1.8,5.91,5.91,0,0,0-.73-1.44,3.79,3.79,0,0,0-1.37-1.19,5.43,5.43,0,0,0-2.29-.44h-7V94.57h2.9v-9.2l2.1,3.47,3.58,5.73h3.6Zm-4.58-2.59V80.47h3.45a2.83,2.83,0,0,1,1.45.3,2.26,2.26,0,0,1,.85,2.08,2,2,0,0,1-.88,1.92,3.17,3.17,0,0,1-1.51.28Z"/><path class="cls-1" d="M275.25,84.88a2.12,2.12,0,0,1-1.63.61h-2.76v-5h2.76a2.25,2.25,0,0,1,1.63.56,2.57,2.57,0,0,1,.59,1.9A2.76,2.76,0,0,1,275.25,84.88Zm2.25-6.06a4.49,4.49,0,0,0-3.4-1.32h-6.19V94.57h2.95V88.43h3a4.91,4.91,0,0,0,3.63-1.25c.85-.83,1.28-2.26,1.28-4.27A5.7,5.7,0,0,0,277.5,78.82Z"/><path class="cls-1" d="M299.17,94.57V77.5h3v14h7v3.07Z"/><path class="cls-1" d="M310.67,77.5V94.57h2.95V77.5Z"/><path class="cls-1" d="M314.88,77.5h9.77v3h-3.38v14h-3v-14h-3.4Z"/><path class="cls-1" d="M332.62,77.5h-3.36L324.2,94.57h3.1l1-3.51h5.23l.92,3.51h3.21Zm-3.54,10.62,1.83-6.72,1.77,6.72Z"/><path class="cls-1" d="M341,94.57V82.45l5.8,12.12h3V77.5H347V89.42L341.32,77.5h-3.11V94.57Z"/><path class="cls-1" d="M376,77.5V94.57h-2.94V77.5Z"/><path class="cls-1" d="M377.68,77.5h9.77v3h-3.38v14h-3v-14h-3.4Z"/><path class="cls-1" d="M395.4,84.94l2.82-7.44h3.37l-4.75,10.66v6.41h-3V88.16L389,77.5h3.49Z"/><path class="cls-1" d="M288.88,77.5a8.49,8.49,0,1,0,8.3,8.49A8.39,8.39,0,0,0,288.88,77.5Zm0,14.34c-2.63,0-4.78-2.62-4.78-5.85s2.15-5.85,4.78-5.85,4.78,2.61,4.78,5.85S291.53,91.84,288.88,91.84Z"/><path class="cls-1" d="M258.31,77.5a8.49,8.49,0,1,0,8.3,8.49A8.39,8.39,0,0,0,258.31,77.5Zm0,14.34c-2.64,0-4.78-2.62-4.78-5.85s2.14-5.85,4.78-5.85,4.78,2.61,4.78,5.85S261,91.84,258.31,91.84Z"/><path class="cls-1" d="M364.43,91.55c-2.64,0-4.78-2.62-4.78-5.85s2.14-5.85,4.78-5.85A4.44,4.44,0,0,1,368,81.79h3.81a8.27,8.27,0,0,0-7.36-4.58,8.49,8.49,0,0,0,0,17,8.27,8.27,0,0,0,7.51-4.91H368.2A4.52,4.52,0,0,1,364.43,91.55Z"/><polygon class="cls-1" points="180.36 45.07 133.74 45.07 133.74 51.66 153.64 51.66 153.64 63.53 161.43 63.53 161.43 51.66 180.36 51.66 180.36 45.07"/><path class="cls-1" d="M237.36,23.76h-6.23v-9.3H223v41H200.29V44.74h-8V58.05c.22,3.56,2.49,3.89,2.49,3.89l36.39,0V30.21h6.23Z"/><rect class="cls-1" x="391.36" y="14.14" width="8.32" height="48.15"/><path class="cls-1" d="M185.44,35.22l15.9-19.9a1.57,1.57,0,0,1,2.7.22l15.47,19.9-5.95,4.44L202.64,26.36,191.39,39.77Z"/><path class="cls-1" d="M352.64,38.58l16.55-23.69a1.43,1.43,0,0,1,2.38.11L387.9,38.69l-6,4.29L370.08,25.53,358.87,43Z"/><path class="cls-2" d="M112.05,50.78,85.89,25.67c-4.31,5.24-8.53,10.74-8.53,10.74C71.89,44.39,66.18,46,66.18,46a47.43,47.43,0,0,1-19.62,0C53,44.74,72,20.15,75.46,15.66L60.71,1.49s-3-3.64-7.07.46L29,24.08s7.08-.22,9.81.92a14.78,14.78,0,0,1,6.85,4.79s3.42,6.62,6.16,6.62c0,0,1.83,3.87-7.3,4.1,0,0-5.71-.45-7.76-7.07,0,0-1.6-7.3-9.35-8L1.15,51.24s-2,1.75-.68,3h66.4s1.82-7.53,6.16-2.28c0,0,2.28-4.11,5-.46,0,0,1.6-7.75,7.07-2.05,0,0,3.2-8.44,7.3-4.33,0,0,2.51.91,3.43,5.93,0,0,3.88-5.48,5.93,3.19,0,0-49.29.92-84.65,18l13.23,13s46.55-23,75.07-28.29c0,0-35.6,13.46-63,39.7l10.27,10s3.65,4.34,8.67-.45l51.34-49.06S115.47,52.83,112.05,50.78Z"/><path class="cls-2" d="M76.16,15C87.79,1.5,109.16,9,109.16,9c-4.34.22-14.6,7.52-14.6,7.52a73.46,73.46,0,0,0-8.45,9L75.53,15.71Z"/><path class="cls-1" d="M141.75,78.65a4.34,4.34,0,0,0-3.33-1.34h-6v17.4h2.88V87.5h2.95a4.73,4.73,0,0,0,3.55-1.27,6.37,6.37,0,0,0,0-7.58Zm-2.17,5.26a2.33,2.33,0,0,1-1.62.56h-2.71V80.33H138a2.16,2.16,0,0,1,1.62.51,1.82,1.82,0,0,1,.55,1.32A2.29,2.29,0,0,1,139.58,83.91Z"/><path class="cls-1" d="M141.75,85.93a4.34,4.34,0,0,0-3.33-1.34h-6V94.76h2.88v0h2.95a4.73,4.73,0,0,0,3.55-1.27,6.37,6.37,0,0,0,0-7.58Zm-2.17,5.26a2.33,2.33,0,0,1-1.62.56h-2.71V87.61H138a2.16,2.16,0,0,1,1.62.51,1.82,1.82,0,0,1,.55,1.32A2.29,2.29,0,0,1,139.58,91.19Z"/></g></g></svg>