<svg xmlns="http://www.w3.org/2000/svg" viewBox="0 0 144.19 64.89"><defs><style>.cls-1{fill:#003686;}.cls-2{fill:#00a1e9;}</style></defs><g id="Layer_2" data-name="Layer 2"><g id="레이어_1" data-name="레이어 1"><path class="cls-1" d="M143.67,0h-8.34a5.69,5.69,0,0,0-4.12,2L117.37,15.51a2.57,2.57,0,0,0,0,3.69l13.84,13.56a5.69,5.69,0,0,0,4.12,2h8.34L125.81,17.36Z"/><path class="cls-1" d="M112.88,0h-5V34.71h7.58V2.61A2.59,2.59,0,0,0,112.88,0Z"/><path class="cls-2" d="M26,0A4.62,4.62,0,1,0,30.6,4.62,4.62,4.62,0,0,0,26,0Z"/><path class="cls-2" d="M5.27,0H.37V34.71H7.88V2.61A2.59,2.59,0,0,0,5.27,0Z"/><path class="cls-2" d="M27.41,13h-16v4.9A2.59,2.59,0,0,0,14,20.52h8.5V32.1a2.6,2.6,0,0,0,2.62,2.61H30V15.62A2.59,2.59,0,0,0,27.41,13Z"/><path class="cls-2" d="M75.31,9.24a4.62,4.62,0,1,0-4.62-4.62A4.62,4.62,0,0,0,75.31,9.24Z"/><path class="cls-2" d="M85.48,0h-3V4.87a2.59,2.59,0,0,0,2.61,2.61h.4c5.26,0,9.54,4.94,9.54,10.2a9.56,9.56,0,0,1-9.54,9.55H78.79v-11a2.6,2.6,0,0,0-2.62-2.62h-4.9V34.71H85.48a17,17,0,0,0,17-17C102.51,8.29,94.87,0,85.48,0Z"/><path class="cls-2" d="M65.22,12v-.1c0-3.22-1-6.49-2.93-8.39C60.05,1.22,56.69,0,52.35,0H36.74V34.71h7.51V6.77h7.46c3.66,0,5.9,2.25,5.9,5.47v.09c0,2.88-2.1,4.83-5.75,4.83H46.92a1,1,0,0,0-.75,1.61l11.39,14a4.5,4.5,0,0,0,3.71,2h7.84L58.39,22.33C62.54,20.62,65.22,17.31,65.22,12Z"/><path class="cls-1" d="M.39,42.34H1.45v3.6H4.39v-3.6H5.45v8.42H4.39V46.85H1.45v3.91H.39Z"/><path class="cls-1" d="M11.45,49.43c0,.45,0,.89.05,1.33h-1l0-.92h0a1.57,1.57,0,0,1-1.55,1c-1.07,0-1.8-.61-1.8-2V44.61h1v4c0,1,.36,1.39,1,1.39s1.3-.55,1.3-1.66v-3.7h1Z"/><path class="cls-1" d="M12.92,45.94c0-.45,0-.9,0-1.33h1l0,.92h0a1.57,1.57,0,0,1,1.52-1,1.56,1.56,0,0,1,1.45,1,1.61,1.61,0,0,1,1.49-1c1.06,0,1.79.61,1.79,2v4.27h-1V46.54c0-.79-.33-1.15-.94-1.15s-1.15.46-1.15,1.57v3.8H16V46.54c0-.79-.33-1.15-.94-1.15s-1.15.46-1.15,1.57v3.8h-1Z"/><path class="cls-1" d="M21.87,45a3.31,3.31,0,0,1,1.73-.5,2.33,2.33,0,0,1,1.64.57,1.88,1.88,0,0,1,.53,1.51v3.21c0,.36,0,.72.05.94h-.91l-.06-.83h0a1.84,1.84,0,0,1-1.72.91,1.64,1.64,0,0,1-1.77-1.77c0-1.19.78-2.07,2.89-2.07h.59v-.28a1.54,1.54,0,0,0-.23-1,1.23,1.23,0,0,0-1-.39A2.2,2.2,0,0,0,22,46Zm2.94,2.71c-.18,0-.43,0-.71,0-1.19,0-1.76.57-1.76,1.28a1,1,0,0,0,1,1.07,1.45,1.45,0,0,0,1.43-1.55Z"/><path class="cls-1" d="M27.21,45.94c0-.45,0-.9-.05-1.33h1l0,.92h0a1.57,1.57,0,0,1,1.55-1c1.08,0,1.8.61,1.8,2v4.27h-1v-4c0-1-.37-1.4-1-1.4s-1.3.56-1.3,1.67v3.7h-1Z"/><path class="cls-1" d="M36.11,42.34h2.15a2.38,2.38,0,0,1,1.78.58,2.17,2.17,0,0,1,.62,1.61,1.92,1.92,0,0,1-1.66,2v0a1.09,1.09,0,0,1,.92.82l1.18,3.38H40l-1-2.85a1.18,1.18,0,0,0-1.34-1h-.48v3.81H36.11Zm1.06,3.74H38a1.41,1.41,0,0,0,1.56-1.48c0-.94-.61-1.39-1.54-1.39h-.84Z"/><path class="cls-1" d="M42.93,48c0,1.42.55,2.08,1.67,2.08A2.59,2.59,0,0,0,46,49.56l0,.92a4.13,4.13,0,0,1-1.72.36c-1.63,0-2.47-1.23-2.47-3.16s.84-3.15,2.37-3.15,2.16,1.1,2.16,2.91V48Zm2.46-.78c0-1.27-.4-1.91-1.21-1.91-.65,0-1.23.48-1.25,1.91Z"/><path class="cls-1" d="M47.26,49.56A2.78,2.78,0,0,0,48.7,50c.78,0,1.17-.4,1.17-.86s-.21-.72-.78-1l-.68-.3c-.88-.4-1.2-.8-1.2-1.58a1.81,1.81,0,0,1,2-1.78,3.81,3.81,0,0,1,1.3.21l-.05.87a3,3,0,0,0-1.21-.27c-.66,0-1,.37-1,.85s.36.77,1,1l.36.14a1.67,1.67,0,0,1,1.22,1.57,1.76,1.76,0,0,1-2,1.9,3.64,3.64,0,0,1-1.66-.36Z"/><path class="cls-1" d="M54.15,44.53c1.63,0,2.47,1.22,2.47,3.15s-.84,3.16-2.47,3.16-2.47-1.23-2.47-3.16S52.53,44.53,54.15,44.53Zm0,5.49c1,0,1.41-.79,1.41-2.34s-.44-2.34-1.41-2.34-1.41.8-1.41,2.34S53.19,50,54.15,50Z"/><path class="cls-1" d="M62.13,49.43c0,.45,0,.89,0,1.33h-1l0-.92h0a1.59,1.59,0,0,1-1.56,1c-1.07,0-1.8-.61-1.8-2V44.61h1v4c0,1,.36,1.39,1,1.39s1.3-.55,1.3-1.66v-3.7h1Z"/><path class="cls-1" d="M63.6,45.94c0-.45,0-.9,0-1.33h1l0,1h0a1.66,1.66,0,0,1,1.75-1v1a1.58,1.58,0,0,0-.38,0c-.79,0-1.34.67-1.34,2v3.26h-1Z"/><path class="cls-1" d="M70.79,45.68a2.31,2.31,0,0,0-1.17-.29c-1,0-1.69.69-1.69,2.35,0,1.43.68,2.23,1.67,2.23a2.68,2.68,0,0,0,1.24-.32l0,.93a3.79,3.79,0,0,1-1.29.26c-1.84,0-2.73-1.36-2.73-3.1,0-2,1-3.21,2.75-3.21a3,3,0,0,1,1.22.24Z"/><path class="cls-1" d="M72.62,48c0,1.42.56,2.08,1.68,2.08a2.59,2.59,0,0,0,1.41-.51l.05.92a4.18,4.18,0,0,1-1.73.36c-1.63,0-2.47-1.23-2.47-3.16s.84-3.15,2.38-3.15c1.38,0,2.15,1.1,2.15,2.91V48Zm2.46-.78c0-1.27-.4-1.91-1.2-1.91s-1.23.48-1.26,1.91Z"/><path class="cls-1" d="M77,49.56A2.79,2.79,0,0,0,78.4,50c.77,0,1.17-.4,1.17-.86s-.22-.72-.79-1l-.67-.3c-.88-.4-1.21-.8-1.21-1.58a1.81,1.81,0,0,1,2-1.78,3.81,3.81,0,0,1,1.3.21l-.05.87a3,3,0,0,0-1.2-.27c-.67,0-1,.37-1,.85s.37.77,1,1l.36.14a1.67,1.67,0,0,1,1.22,1.57,1.76,1.76,0,0,1-2,1.9,3.67,3.67,0,0,1-1.66-.36Z"/><path class="cls-1" d="M84.64,42.34h1.83a3.61,3.61,0,0,1,2.24.61,4,4,0,0,1,1.56,3.47c0,2.43-1.16,4.34-4.32,4.34H84.64Zm1.06,7.5h.64c1.86,0,2.82-1.26,2.82-3.42,0-1.76-.75-3.16-2.82-3.16H85.7Z"/><path class="cls-1" d="M92.25,48c0,1.42.55,2.08,1.67,2.08a2.56,2.56,0,0,0,1.41-.51l0,.92a4.13,4.13,0,0,1-1.72.36c-1.63,0-2.47-1.23-2.47-3.16s.84-3.15,2.37-3.15,2.16,1.1,2.16,2.91V48Zm2.46-.78c0-1.27-.4-1.91-1.21-1.91-.65,0-1.23.48-1.25,1.91Z"/><path class="cls-1" d="M96.21,44.61h1.11l1.35,5.14h0l1.37-5.14h1.06l-1.84,6.15H98.08Z"/><path class="cls-1" d="M102.74,48c0,1.42.55,2.08,1.67,2.08a2.56,2.56,0,0,0,1.41-.51l.05.92a4.13,4.13,0,0,1-1.72.36c-1.63,0-2.48-1.23-2.48-3.16s.85-3.15,2.38-3.15,2.16,1.1,2.16,2.91V48Zm2.46-.78c0-1.27-.4-1.91-1.21-1.91-.65,0-1.23.48-1.25,1.91Z"/><path class="cls-1" d="M107.42,41.72h1v9h-1Z"/><path class="cls-1" d="M112.17,44.53c1.63,0,2.48,1.22,2.48,3.15s-.85,3.16-2.48,3.16-2.47-1.23-2.47-3.16S110.55,44.53,112.17,44.53Zm0,5.49c1,0,1.42-.79,1.42-2.34s-.45-2.34-1.42-2.34-1.41.8-1.41,2.34S111.21,50,112.17,50Z"/><path class="cls-1" d="M115.72,45.74c0-.37,0-.76,0-1.13h1l0,.9h0a1.73,1.73,0,0,1,1.61-1c1.27,0,2.12,1,2.12,3.15s-.85,3.16-2.12,3.16a1.67,1.67,0,0,1-1.56-.93h0v3.45h-1ZM118.08,50c.93,0,1.35-.79,1.35-2.34s-.42-2.34-1.35-2.34-1.35.8-1.35,2.34S117.15,50,118.08,50Z"/><path class="cls-1" d="M121.61,45.94c0-.45,0-.9,0-1.33h1l0,.92h0a1.57,1.57,0,0,1,1.52-1,1.56,1.56,0,0,1,1.45,1,1.61,1.61,0,0,1,1.49-1c1.06,0,1.79.61,1.79,2v4.27h-1V46.54c0-.79-.33-1.15-.94-1.15s-1.15.46-1.15,1.57v3.8h-1V46.54c0-.79-.33-1.15-.94-1.15s-1.15.46-1.15,1.57v3.8h-1Z"/><path class="cls-1" d="M131.08,48c0,1.42.55,2.08,1.67,2.08a2.56,2.56,0,0,0,1.41-.51l.05.92a4.13,4.13,0,0,1-1.72.36c-1.63,0-2.47-1.23-2.47-3.16s.84-3.15,2.37-3.15,2.16,1.1,2.16,2.91V48Zm2.46-.78c0-1.27-.4-1.91-1.21-1.91-.65,0-1.23.48-1.25,1.91Z"/><path class="cls-1" d="M135.67,45.94c0-.45,0-.9,0-1.33h1l0,.92h0a1.57,1.57,0,0,1,1.55-1c1.08,0,1.8.61,1.8,2v4.27h-1v-4c0-1-.36-1.4-1-1.4s-1.3.56-1.3,1.67v3.7h-1Z"/><path class="cls-1" d="M144.19,50.69a3,3,0,0,1-.85.15c-.93,0-1.43-.37-1.43-1.46v-4h-1v-.82h1V43.36l1-.3v1.55h1.26v.82h-1.26v3.63c0,.7.18,1,.64,1a1.49,1.49,0,0,0,.62-.15Z"/><path class="cls-1" d="M3.86,57.61a2.87,2.87,0,0,0-1.44-.39,1.23,1.23,0,0,0-1.31,1.25c0,.55.22.88,1.42,1.58s1.74,1.49,1.74,2.45a2.26,2.26,0,0,1-2.45,2.39,4.33,4.33,0,0,1-1.76-.36v-1.1a3.47,3.47,0,0,0,1.6.54,1.37,1.37,0,0,0,1.5-1.32c0-.66-.17-1-1.3-1.72C.34,60,0,59.5,0,58.41A2.11,2.11,0,0,1,2.34,56.3a4.25,4.25,0,0,1,1.52.28Z"/><path class="cls-1" d="M6.31,62c0,1.42.55,2.09,1.67,2.09a2.64,2.64,0,0,0,1.41-.51l0,.92a4.29,4.29,0,0,1-1.72.36c-1.63,0-2.48-1.23-2.48-3.16s.85-3.16,2.38-3.16,2.16,1.11,2.16,2.92V62Zm2.45-.77c0-1.28-.39-1.92-1.2-1.92-.65,0-1.23.48-1.25,1.92Z"/><path class="cls-1" d="M10.9,60c0-.44,0-.89-.05-1.32h1l0,1h0a1.64,1.64,0,0,1,1.74-1v1a2.34,2.34,0,0,0-.38,0c-.78,0-1.34.67-1.34,2V64.8h-1Z"/><path class="cls-1" d="M13.84,58.66H15l1.35,5.13h0l1.38-5.13h1.06L16.91,64.8h-1.2Z"/><path class="cls-1" d="M20.76,56.12v1.21H19.65V56.12ZM19.7,58.66h1V64.8h-1Z"/><path class="cls-1" d="M25.89,59.73a2.24,2.24,0,0,0-1.16-.29c-1,0-1.69.69-1.69,2.35,0,1.42.67,2.23,1.66,2.23a2.68,2.68,0,0,0,1.24-.33l0,.93a3.68,3.68,0,0,1-1.29.27c-1.83,0-2.72-1.37-2.72-3.1,0-2,1-3.22,2.75-3.22a3.07,3.07,0,0,1,1.21.24Z"/><path class="cls-1" d="M27.73,62c0,1.42.55,2.09,1.67,2.09a2.64,2.64,0,0,0,1.41-.51l.05.92a4.29,4.29,0,0,1-1.72.36c-1.63,0-2.47-1.23-2.47-3.16s.84-3.16,2.37-3.16,2.16,1.11,2.16,2.92V62Zm2.46-.77c0-1.28-.4-1.92-1.21-1.92-.65,0-1.23.48-1.25,1.92Z"/><path class="cls-1" d="M37.38,58.57c1.63,0,2.47,1.23,2.47,3.16s-.84,3.16-2.47,3.16-2.47-1.23-2.47-3.16S35.76,58.57,37.38,58.57Zm0,5.5c1,0,1.41-.8,1.41-2.34s-.44-2.34-1.41-2.34S36,60.19,36,61.73,36.42,64.07,37.38,64.07Z"/><path class="cls-1" d="M41.46,59.47h-1v-.81h1V57.28c0-1,.46-1.66,1.53-1.66a3.32,3.32,0,0,1,.8.09v.87a1.06,1.06,0,0,0-.58-.14c-.57,0-.74.31-.74.93v1.29h1.11v.81H42.47V64.8h-1Z"/><path class="cls-1" d="M47.34,56.39H48.4V60h0l2.78-3.65h1.27l-3.16,4,3.42,4.43H51.37l-2.94-4.07h0V64.8H47.34Z"/><path class="cls-1" d="M55.25,58.57c1.63,0,2.47,1.23,2.47,3.16s-.84,3.16-2.47,3.16-2.47-1.23-2.47-3.16S53.62,58.57,55.25,58.57Zm0,5.5c1,0,1.41-.8,1.41-2.34s-.44-2.34-1.41-2.34-1.41.8-1.41,2.34S54.29,64.07,55.25,64.07Z"/><path class="cls-1" d="M58.89,60c0-.44,0-.89,0-1.32h1l0,1h0a1.65,1.65,0,0,1,1.75-1v1a2.38,2.38,0,0,0-.39,0c-.78,0-1.34.67-1.34,2V64.8h-1Z"/><path class="cls-1" d="M63.22,62c0,1.42.55,2.09,1.67,2.09a2.67,2.67,0,0,0,1.42-.51l0,.92a4.29,4.29,0,0,1-1.72.36c-1.63,0-2.47-1.23-2.47-3.16s.84-3.16,2.37-3.16,2.16,1.11,2.16,2.92V62Zm2.46-.77c0-1.28-.4-1.92-1.21-1.92-.65,0-1.23.48-1.25,1.92Z"/><path class="cls-1" d="M68.05,59.08a3.27,3.27,0,0,1,1.74-.51,2.35,2.35,0,0,1,1.64.58A1.9,1.9,0,0,1,72,60.66v3.2a7.69,7.69,0,0,0,.05.94h-.92L71,64h0a1.87,1.87,0,0,1-1.73.92,1.64,1.64,0,0,1-1.77-1.77c0-1.2.79-2.08,2.89-2.08H71v-.28a1.51,1.51,0,0,0-.23-1,1.26,1.26,0,0,0-1-.39,2.16,2.16,0,0,0-1.58.64Zm3,2.71a5.1,5.1,0,0,0-.72,0c-1.19,0-1.76.57-1.76,1.28a1,1,0,0,0,1,1.08A1.46,1.46,0,0,0,71,62.56Z"/></g></g></svg>