<svg xmlns="http://www.w3.org/2000/svg" viewBox="0 0 227.8 56.12"><defs><style>.cls-1{fill:#0079c1;}.cls-2{fill:#00b1b0;}.cls-3{fill:#5f6062;}</style></defs><g id="Layer_2" data-name="Layer 2"><g id="레이어_1" data-name="레이어 1"><path class="cls-1" d="M25.14,41.65a26.15,26.15,0,0,0,27.07.7A28.06,28.06,0,1,1,32.84.42,13.56,13.56,0,0,1,41.5,6.47a21.86,21.86,0,0,1,2.56,6.33v.06a22.78,22.78,0,0,1-.08,10C42.79,28.1,39.83,33,36,35.64l0,0a10.8,10.8,0,0,0,2.79-5.15,11,11,0,1,0-21.36-4.9,11.71,11.71,0,0,0-.12,5,17.54,17.54,0,0,0,7.88,11Z"/><path class="cls-2" d="M22.74,37.81a22.42,22.42,0,0,0,5.55,2,23,23,0,0,0,19-4.06l0,0a23.37,23.37,0,0,0,8.57-11.41c.77,7-.7,11-.7,11a22.79,22.79,0,0,1-22.74,7.51s-5.89-1.23-9.73-5Z"/><path class="cls-2" d="M29.62,39C40.38,39.9,50.47,32.1,53,22.28a29.39,29.39,0,0,0,.77-5.39A28.48,28.48,0,0,0,45.42,6.12,23,23,0,0,1,31.66,38.54a14.6,14.6,0,0,1-2.05.48Z"/><polygon class="cls-3" points="99.44 5.87 99.44 22.54 95.62 22.54 95.62 5.87 99.44 5.87 99.44 5.87"/><polygon class="cls-3" points="225.66 5.86 225.66 33.82 221.85 33.82 221.85 5.86 225.66 5.86 225.66 5.86"/><polygon class="cls-3" points="126.36 5.86 126.36 11.2 120.78 11.2 120.78 14.46 126.36 14.46 126.36 22.54 130.17 22.54 130.17 5.86 126.36 5.86 126.36 5.86"/><polygon class="cls-3" points="120.59 20.99 114.33 10.36 119.62 10.36 119.62 7.1 113.85 7.1 113.85 4.9 110.03 4.9 110.03 7.1 104.29 7.1 104.29 10.36 109.54 10.36 103.27 20.99 107.4 20.99 111.93 13.29 116.47 20.99 120.59 20.99 120.59 20.99"/><polygon class="cls-3" points="220.26 25.69 210.53 6.79 210.49 6.79 206.3 6.79 206.26 6.79 196.52 25.69 200.76 25.69 208.39 10.86 216.03 25.69 220.26 25.69 220.26 25.69"/><polygon class="cls-3" points="168.78 23.38 168.78 26.64 190.29 26.64 190.29 33.75 194.11 33.75 194.1 23.39 168.78 23.38 168.78 23.38"/><polygon class="cls-3" points="78.95 23.95 75.14 23.95 75.14 33.12 99.62 33.13 99.62 29.87 78.95 29.87 78.95 23.95 78.95 23.95"/><polygon class="cls-3" points="130.02 29.87 108.98 29.87 108.98 23.95 105.16 23.95 105.16 33.13 130.02 33.13 130.02 29.87 130.02 29.87"/><polygon class="cls-3" points="184.31 6.04 184.31 9.31 190.29 9.31 190.29 14.63 184.31 14.63 184.31 17.88 190.29 17.88 190.29 21.84 194.11 21.84 194.11 6.04 184.31 6.04 184.31 6.04"/><polygon class="cls-3" points="157.41 6.05 157.42 21.68 161.24 21.68 161.24 9.31 163.93 9.31 163.93 6.04 157.41 6.05 157.41 6.05"/><polygon class="cls-3" points="134.81 9.6 149.5 9.6 149.5 16.85 143.38 16.85 143.38 12.13 139.56 12.13 139.56 16.85 134.13 16.85 134.13 20.11 153.32 20.1 153.32 6.34 134.81 6.35 134.81 9.6 134.81 9.6"/><path class="cls-3" d="M80.81,5.92a8,8,0,1,0,8,8A8,8,0,0,0,80.81,5.92Zm0,12.41a4.45,4.45,0,1,1,4.45-4.45A4.45,4.45,0,0,1,80.81,18.33Z"/><path class="cls-3" d="M174.7,5.52a8,8,0,1,0,8,8A8,8,0,0,0,174.7,5.52Zm0,12.41a4.45,4.45,0,1,1,4.44-4.45A4.45,4.45,0,0,1,174.7,17.93Z"/><path class="cls-3" d="M154.68,18.09a8,8,0,1,0,8,8A8,8,0,0,0,154.68,18.09Zm0,12.41a4.45,4.45,0,1,1,4.45-4.45A4.45,4.45,0,0,1,154.68,30.5Z"/><polygon class="cls-3" points="75.27 38.69 75.06 38.69 75.06 38.9 75.06 50.34 75.06 50.54 75.27 50.54 76.72 50.54 76.92 50.54 76.92 50.34 76.92 38.9 76.92 38.69 76.72 38.69 75.27 38.69"/><path class="cls-3" d="M82.36,42a2.33,2.33,0,0,0-2,.83v-.67h-1.8l0,.22c0,.63.08,1.16.08,1.65v6.54h1.7V45.6c0-1.49.44-2.16,1.43-2.16.84,0,1.21.42,1.21,1.35v5.75h1.71V44.79C84.71,43.48,84.44,42,82.36,42Z"/><path class="cls-3" d="M91.91,47.47H90.33v.21A1.66,1.66,0,0,1,90,48.94a.88.88,0,0,1-.58.29c-1.14,0-1.47-.75-1.47-3.33,0-2.27.76-2.46,1.47-2.46a.8.8,0,0,1,.57.23,1.66,1.66,0,0,1,.34,1.23v.2H92v-.19a2.84,2.84,0,0,0-.67-2.2,2.63,2.63,0,0,0-2-.74c-3,0-3.24,2.22-3.24,4.48,0,3.53,1.3,4.25,3.24,4.25a2.81,2.81,0,0,0,2-.81,3,3,0,0,0,.77-2.22v-.2Z"/><path class="cls-3" d="M97.28,42a2.35,2.35,0,0,0-2,.83V38.69h-1.7V50.54h1.7V45.63c0-1.51.45-2.19,1.44-2.19s1.22.44,1.22,1.48v5.62h1.7V44.66C99.6,42.85,98.84,42,97.28,42Z"/><path class="cls-3" d="M104.12,42c-3,0-3.24,2.22-3.24,4.48,0,3.53,1.3,4.25,3.24,4.25s3-1,3-2.79v-.2H105.3v.19c0,.65-.37,1.33-1.2,1.33s-1.36-.19-1.4-2.27h4.49v-.89C107.18,43.54,106.67,42,104.12,42ZM104,43.36c.79,0,1.35.18,1.39,2.21h-2.7C102.75,43.37,103.56,43.36,104,43.36Z"/><path class="cls-3" d="M111.48,42c-3,0-3.25,2.22-3.25,4.48,0,3.53,1.3,4.25,3.25,4.25s3.24-.72,3.24-4.25C114.72,44.19,114.47,42,111.48,42Zm0,7.26c-1.15,0-1.48-.75-1.48-3.33,0-2.27.76-2.46,1.48-2.46s1.48.19,1.48,2.46C113,48.48,112.62,49.23,111.48,49.23Z"/><path class="cls-3" d="M119.61,42a2.32,2.32,0,0,0-2,.83v-.67h-1.8l0,.22c0,.61.07,1.15.07,1.65v6.54h1.71V45.6c0-1.49.44-2.16,1.43-2.16.83,0,1.21.42,1.21,1.35v5.75H122V44.79C122,43.48,121.68,42,119.61,42Z"/><polygon class="cls-3" points="134.95 38.69 134.8 38.69 134.76 38.84 132.02 47.86 129.31 38.84 129.27 38.69 129.12 38.69 126.76 38.69 126.55 38.69 126.55 38.9 126.55 50.34 126.55 50.54 126.76 50.54 128.12 50.54 128.32 50.54 128.32 50.34 128.32 41.4 131.1 50.4 131.14 50.54 131.29 50.54 132.67 50.54 132.82 50.54 132.86 50.4 135.7 41.38 135.7 50.34 135.7 50.54 135.9 50.54 137.36 50.54 137.56 50.54 137.56 50.34 137.56 38.9 137.56 38.69 137.36 38.69 134.95 38.69"/><path class="cls-3" d="M142.24,42c-3,0-3.24,2.22-3.24,4.48,0,3.53,1.3,4.25,3.24,4.25s3-1,3-2.79v-.2h-1.81l0,.19c0,.65-.37,1.33-1.19,1.33S140.84,49,140.8,47h4.5v-.89C145.3,43.54,144.79,42,142.24,42Zm-.13,1.39c.8,0,1.36.18,1.4,2.21h-2.7C140.86,43.55,141.51,43.36,142.11,43.36Z"/><path class="cls-3" d="M149.71,49.14l-.31,0c-1,0-1-.44-1-1V43.52h1.74V42.13h-1.74V39.9l-.29.13-1.3.58-.11.06v1.46H145.4v1.39h1.32V49c0,.74.34,1.62,2,1.62a7,7,0,0,0,.8-.06,4,4,0,0,1,.5-.06l.18,0V49.08l-.22,0Z"/><path class="cls-3" d="M152.89,42.84v-.71h-1.71v8.41h1.71V45.61c0-1.3.54-2,1.6-2a3,3,0,0,1,.31,0l.13,0,.23,0,.23,0V42h-.2A2.44,2.44,0,0,0,152.89,42.84Z"/><path class="cls-3" d="M159,42c-3,0-3.24,2.22-3.24,4.48,0,3.53,1.29,4.25,3.24,4.25s3.25-.72,3.25-4.25C162.21,44.19,162,42,159,42Zm0,7.26c-1.14,0-1.48-.75-1.48-3.33,0-2.27.77-2.46,1.48-2.46s1.48.19,1.48,2.46C160.44,48.48,160.11,49.23,159,49.23Z"/><path class="cls-3" d="M166.87,42a2.1,2.1,0,0,0-1.67.75v-.59h-1.7V53.57h1.7V50a2.16,2.16,0,0,0,1.61.68c2.85,0,2.85-2.71,2.85-4.5C169.66,42.45,168.17,42,166.87,42Zm1,4.23c0,2.38-.3,3-1.38,3S165.2,48,165.2,46.68V46.4c0-.9,0-2.14.53-2.68a1,1,0,0,1,.73-.28C167.78,43.44,167.89,44.69,167.89,46.2Z"/><path class="cls-3" d="M173.86,42c-3,0-3.24,2.22-3.24,4.48,0,3.53,1.29,4.25,3.24,4.25s3.24-.72,3.24-4.25C177.1,44.19,176.85,42,173.86,42Zm0,7.26c-1.15,0-1.48-.75-1.48-3.33,0-2.27.77-2.46,1.48-2.46s1.48.19,1.48,2.46C175.34,48.48,175,49.23,173.86,49.23Z"/><polygon class="cls-3" points="178.46 38.69 178.25 38.69 178.25 38.9 178.25 50.34 178.25 50.54 178.46 50.54 179.76 50.54 179.96 50.54 179.96 50.34 179.96 38.9 179.96 38.69 179.76 38.69 178.46 38.69"/><polygon class="cls-3" points="181.42 38.69 181.22 38.69 181.22 38.9 181.22 40.29 181.22 40.49 181.42 40.49 182.88 40.49 183.08 40.49 183.08 40.29 183.08 38.9 183.08 38.69 182.88 38.69 181.42 38.69"/><polygon class="cls-3" points="181.5 42.13 181.3 42.13 181.3 42.34 181.3 50.34 181.3 50.54 181.5 50.54 182.8 50.54 183 50.54 183 50.34 183 42.34 183 42.13 182.8 42.13 181.5 42.13"/><path class="cls-3" d="M187.51,49.14l-.3,0c-1,0-1-.44-1-1V43.52H188V42.13h-1.74V39.9l-.29.13-1.3.58-.11.06v1.46H183.2v1.39h1.32V49c0,.74.34,1.62,2,1.62a7,7,0,0,0,.8-.06,4,4,0,0,1,.5-.06l.18,0V49.08l-.22,0Z"/><path class="cls-3" d="M194.1,48.43V44.58c0-1.75-.92-2.61-2.81-2.61s-2.85.83-2.91,2.61v.21h1.85l0-.23a1.08,1.08,0,0,1,.24-.89,1.05,1.05,0,0,1,.81-.31,1.1,1.1,0,0,1,.83.28,2.22,2.22,0,0,1,.32,1.53c-1.37,0-2.71.08-3.53.88a2.43,2.43,0,0,0-.68,1.81c0,1.91.78,2.84,2.39,2.84a2.12,2.12,0,0,0,1.84-.82v.66h1.87l0-.23A13.14,13.14,0,0,1,194.1,48.43Zm-1.71-1.87a3.32,3.32,0,0,1-.54,2.31,1.21,1.21,0,0,1-.9.36c-1,0-1-1-1-1.27,0-1.28,1-1.39,2.44-1.4Z"/><path class="cls-3" d="M199.45,42a2.31,2.31,0,0,0-2,.83v-.67h-1.8v.22c.06.63.08,1.16.08,1.65v6.54h1.71V45.6c0-1.49.44-2.16,1.43-2.16.83,0,1.2.42,1.2,1.35v5.75h1.71V44.79C201.8,43.48,201.53,42,199.45,42Z"/><path class="cls-3" d="M213.31,46.76H211.6V47c0,1.91-1,2.19-1.6,2.19-1,0-1.85-.22-1.85-2.93V43.16a4.68,4.68,0,0,1,.29-2.23l0-.08A1.64,1.64,0,0,1,210,40.1a1.77,1.77,0,0,1,1.13.41,2.64,2.64,0,0,1,.29,1.53v.21h1.9l0-.19a3.54,3.54,0,0,0-.72-2.75,3.2,3.2,0,0,0-2.48-.85c-2.68,0-3.88,1.34-3.88,4.35V46c0,4.74,2.48,4.74,3.81,4.74a3.41,3.41,0,0,0,2.51-.87,4,4,0,0,0,.93-2.95v-.2Z"/><polygon class="cls-3" points="214.67 38.69 214.47 38.69 214.47 38.9 214.47 40.29 214.47 40.49 214.67 40.49 216.13 40.49 216.33 40.49 216.33 40.29 216.33 38.9 216.33 38.69 216.13 38.69 214.67 38.69"/><polygon class="cls-3" points="214.75 42.13 214.55 42.13 214.55 42.34 214.55 50.34 214.55 50.54 214.75 50.54 216.05 50.54 216.25 50.54 216.25 50.34 216.25 42.34 216.25 42.13 216.05 42.13 214.75 42.13"/><path class="cls-3" d="M227.53,42.13H226l0,.15-1.74,5.91-1.74-5.91,0-.15h-2.93V39.9l-.29.13-1.29.58-.12.06v1.46h-1.32v1.39h1.32V49c0,.74.34,1.62,2,1.62a7,7,0,0,0,.8-.06,4,4,0,0,1,.5-.06l.18,0V49.08l-.22,0-.26,0-.3,0c-1,0-1-.44-1-1V43.52h1.46l2.31,6.82-.88,3-.08.26H224l.05-.14,3.63-11,.08-.27Z"/></g></g></svg>