<svg xmlns="http://www.w3.org/2000/svg" viewBox="0 0 172.48 47.29"><defs><style>.cls-1{fill:#bd1339;}.cls-2{fill:#0087cb;}.cls-3{fill:#2e9647;}.cls-4{fill:#231f20;}</style></defs><g id="Layer_2" data-name="Layer 2"><path class="cls-1" d="M26.28,6.3a1,1,0,0,1,.22.41c.13.41.52.66.56,1.08,0,.14.2.19.29.25s0,.29.23.48,0,.21,0,.35l.29.18a3.73,3.73,0,0,1-.06,4.32,1.59,1.59,0,0,0-.37.61c-.08.07-.25.16-.33.24s.11.2.21.33c-.42.11-.47.47-.8.71l-.35,0a4.12,4.12,0,0,1-.74.49c-.07.08,0,.29,0,.36a2.63,2.63,0,0,1-1.62.51c-.09,0-.15.22-.24.23-.44,0-1,0-1.4.06-.19-.05-.29-.18-.47-.24a1.35,1.35,0,0,1-.53,0,5.25,5.25,0,0,0-.93-.34c-.18-.05-.51.12-.7,0A7.51,7.51,0,0,1,18,14.79c-.21-.33-.57-.44-.7-.78,0-.14.05-.36-.13-.41-.37-.11-.21-.34-.24-.55a1.92,1.92,0,0,0-.32-.54c-.11-.2,0-.49-.09-.76,0-.08.08-.15.07-.22-.14-.42.08-.86,0-1.21a2,2,0,0,1,.1-.72,6.1,6.1,0,0,1,.81-1.42c0-.07,0-.21,0-.28s.17-.08.25-.16a3.33,3.33,0,0,1,.51-1c.31-.38.8-.71,1.2-1.1a3.69,3.69,0,0,0,.79-.79c.08-.08.36,0,.44,0,.24-.23.6-.19.84-.36s.2.19.45.1a1,1,0,0,0,.42-.18c.26-.1.54.09.81.14a1.21,1.21,0,0,1,.82.2c.38.25,1.25.17,1.39.65S26.07,6,26.28,6.3Z"/><path class="cls-2" d="M41.05,11.84a1.49,1.49,0,0,0-.09-.58c0-.22.16-.46.08-.76,0-.08-.16-.18-.15-.24A3.57,3.57,0,0,0,41,8.87a1.13,1.13,0,0,0-.14-.31c0-.06,0-.2.06-.34a3,3,0,0,0-.25-1.11c0-.15-.15-.24-.17-.46s-.16-.18-.15-.24a4.81,4.81,0,0,0-.27-1.68c-.14-.67-.77-1.09-1-1.76,0-.07.22,0,.28,0a3.43,3.43,0,0,1,1.18,1.67c.08.23,0,.43.15.59A3.41,3.41,0,0,1,41.31,7c0,.07.12,0,.17.11a.45.45,0,0,0,0,.28c.32.35.13.73.19,1.1a.82.82,0,0,0,.13.31c0,.07-.17.25-.18.31a1.56,1.56,0,0,1,.3,1.19c.29.14.16.53.23.83a.22.22,0,0,0,.17.11.88.88,0,0,0,.2-.38,5.78,5.78,0,0,0,0-1.56.57.57,0,0,1,0-.62c-.12,0-.16-.18-.21-.26-.22-.89-.31-1.89-.58-2.81a.21.21,0,0,0,.09-.12,12.12,12.12,0,0,0-1-2.36c-.05-.15-.28-.32-.39-.47a1.13,1.13,0,0,1,0-.14c.31,0,.55.35.72.58A4.42,4.42,0,0,1,42,4.61,11.94,11.94,0,0,1,42.52,6a2.66,2.66,0,0,0,.43.75A2.42,2.42,0,0,1,43,7.4c.09.52.24,1,.34,1.53a1.73,1.73,0,0,1,0,1.14c-.17.6.23,1.25.39,1.77a.89.89,0,0,1-.13.68c0,.07.1.16.09.23-.11.26,0,.49-.07.76-.08.06.08.23,0,.35s-.14.05-.21.1,0,.42,0,.62c-.2.38-.1.9-.47,1.17-.14,0-.15.11-.22.16s.11.1.16.18-.14,0-.21.09.24.3.28.38c-.09.55-.5,1-.49,1.66,0,.13-.06.34-.08.47-.13.33-.36.56-.49.88,0,.14-.28.15-.31.29s-.14.46-.25.72-.27.08-.42.19a3.2,3.2,0,0,0-.26.71c-.19.32-.41.65-.6,1a4,4,0,0,1-.94,1.22.52.52,0,0,0-.28.08,1.68,1.68,0,0,1-.84.86c-.06,0-.15.28-.23.33a7.86,7.86,0,0,1-.8.67c-.13,0-.21.09-.35-.15a7.54,7.54,0,0,1-1.74,2c-.35.2-.7.17-.93.4a19.57,19.57,0,0,1-2.1,1.65c-.06,0-.29.33-.29.33-.25,0-.11.05-.33,0,0,0,0,.39-.32.45-.66.13-.83.89-.88,1.2s-.13.05-.21.11,0,.16-.1.22a4.77,4.77,0,0,0-.76.79c-.07.07-.12,0-.2,0a2.7,2.7,0,0,0-.54.86,6.82,6.82,0,0,1-1,1.72c-.1.12.23.56.2.71s-.28.24-.37.45c-.08.52-.11,1.09-.2,1.64a2.92,2.92,0,0,0,.11,1.39,9.69,9.69,0,0,1,0,1.32c0,.31.24.65.21,1,0,.47-.1.41,0,.8a1.93,1.93,0,0,0,0,.62c0,.3-.07.5-.09.8-.06.08-.2.22-.2.3a3.11,3.11,0,0,1-1.08,1.95c-.33.21-.61.53-1,.51a8.71,8.71,0,0,0-1,.43,3.43,3.43,0,0,1-1.52.09,2.19,2.19,0,0,1-1.46-.91c-.24-.26-.65-.16-.8-.57-.05-.17-.39-.25-.45-.34a4.76,4.76,0,0,1-.7-.95c-.15-.41,0-.69-.22-1.09-.2-.24-.28-.41-.47-.66s.06-.78-.13-1.1a.94.94,0,0,1-.32-.41,6.94,6.94,0,0,0-.28-1.11,8.83,8.83,0,0,1,0-2.24c0-.08-.21-.19-.2-.27a11.8,11.8,0,0,0,.18-1.69c.06-.32,0-.57.32-.83,0,0-.14-.11-.12-.19a7.83,7.83,0,0,0,.25-1.28c0-.07.18-.12.19-.2A4.16,4.16,0,0,1,18,32c0-.16.43-.39.53-.53a.91.91,0,0,1,.09-.55c0-.07.14-.05.22-.11s0-.17,0-.25c0-.24.43-.4.46-.56A4.18,4.18,0,0,1,20,28.8a2.4,2.4,0,0,1,.3-.57c.07-.05.11,0,.12-.07a2.81,2.81,0,0,0,0-.29c.16-.17.38-.33.41-.54a2.47,2.47,0,0,1,.36-.62,2.59,2.59,0,0,0,.76-.75c.16-.17.34-.13.5-.31s.29-.57.46-.81a6.92,6.92,0,0,1,1.26-1.13,9.76,9.76,0,0,1,1.17-.58c.37-.27.58-.79.93-1s.47-.18.69-.34.4-.47.72-.54a3.1,3.1,0,0,0,.88-.26c.43-.25.25-.33.67-.59a12.64,12.64,0,0,1,1.13-.65.34.34,0,0,0,.16-.24,5.66,5.66,0,0,1,1.2-.92c.13,0,.29.14.45,0s-.09-.23,0-.35a7.59,7.59,0,0,1,.67-.7c.07-.06.25,0,.38,0s.1-.19.18-.24-.08-.3,0-.42.19-.38.33-.42.5-.25.46-.4a.86.86,0,0,1,.44-.67c0-.07,0-.14,0-.21s.31-.28.47-.46.1-.54.2-.73a2.22,2.22,0,0,0,.71-1.11c0-.22-.16-.53-.06-.72s.36-.2.38-.34a3.81,3.81,0,0,0-.1-.87c0-.2.26-.36.24-.58a16.57,16.57,0,0,0-.08-1.71c.2,0,.23-.16.25-.3a11.8,11.8,0,0,0-.41-1.28c0-.29.22-.52.21-.8A1.24,1.24,0,0,0,36,5.59c-.21-.25-.07-.64-.15-.94s-.33-.64-.38-1.07c0-.22-.28-.21-.37-.44a3.5,3.5,0,0,1-.15-1c0-.15-.23-.12-.35-.21-.24-.41-.16-1.24-.7-1.43,0-.27-.2-.32-.28-.55a.83.83,0,0,1,.8.53c.05.08.23.12.29.13.17.18.15.6.33.71s.55.12.64.35c.12.38.41.58.54.89a.59.59,0,0,0,.08.3c.22.19.25.41.4.58.38.44.75.87.57,1.47-.11.26.23.19.33.35.24.41.14,1,.47,1.3a4.63,4.63,0,0,0,.48,1.94,2.38,2.38,0,0,0,.12,2.08s.2,0,.22-.09c.06-.34.67-.45.57-.62a7.21,7.21,0,0,1-.31-1.52,7.43,7.43,0,0,0,0-1.63L39,6.53a2.1,2.1,0,0,1-.09-.94c0-.14-.15-.24-.18-.39a2.56,2.56,0,0,1,.05-.27c.13,0,.31.07.43.1s0,.28.06.36c.2.33.49.46.56.83a2.16,2.16,0,0,0,0,.27c0,.43.31.77.37,1.14,0,.22-.16.53-.07.76a3.47,3.47,0,0,1,.25,1.81c-.06.27.29.49.19.68s0,.22-.07.41-.15.1-.16.17c.18.4-.1,1-.16,1.33,0,.07.21.14.26-.11s.28-.15.42-.19A.77.77,0,0,0,41.05,11.84Zm1.33,1.36a3.89,3.89,0,0,0,.12-1c-.13-.38-.41,0-.61,0a1.82,1.82,0,0,1-.2,1.15c-.09.12-.15.46,0,.43A.6.6,0,0,0,42.38,13.2Zm-.52,1.85a.37.37,0,0,0-.07-.42c-.18-.11-.4,0-.5.24s0,.49.24.48C41.59,15.36,41.77,15.17,41.86,15.05Z"/><path class="cls-2" d="M38.22,3.49c.33.25.46.67.72,1l0,.13c-.45.39-.85-.26-1-.64a3.08,3.08,0,0,0-.71-1.07,1.42,1.42,0,0,0,0-.2c-.16-.18-.37-.43-.16-.53s.23.12.41.23C37.78,2.76,37.82,3.19,38.22,3.49Z"/><path class="cls-2" d="M40.09,1.75c0,.07-.11.19-.12.25a2.73,2.73,0,0,1-.62-.73c-.06,0-.18,0-.23-.13s0-.08,0-.15c.2,0,.35.16.52.28s.14,0,.2,0A.64.64,0,0,1,40.09,1.75Z"/><path class="cls-3" d="M12.21,14.22a1.14,1.14,0,0,1,.19.19.29.29,0,0,0,.31,0c.1,0,.2.28.3.29s.24.33.39.46.2.15.3.22a3.33,3.33,0,0,0,.38.49c.09.12.25.07.35.08s.29.37.43.55c.05,0,.14.18.14.24a2.74,2.74,0,0,0,.34.25c.05.06,0,.18.09.24a17.24,17.24,0,0,1,1.17,1.63.85.85,0,0,1,0,.17,10.27,10.27,0,0,1,.89,1.33c.09.17.17.47.26.7s.19.19.28.31a2.09,2.09,0,0,1,.31.82c0,.11-.09.45-.28.26s-.22-.58-.46-.78a.63.63,0,0,0-.11-.26c-.1-.12-.28-.11-.32-.28s-.18-.31-.27-.43c-.25-.35-.61-.48-.9-.84a.2.2,0,0,0-.16.05c-.05.11-.21.28-.07.45s.3.36.55.48.19.47.28.76a1.14,1.14,0,0,0,.35.3c.15.12.09.3.23.48s0,.11-.06.16.3.14.44.32c.11-.1.27,0,.36.15-.17.16-.13.27-.19.44s.22.53.46.66.14.3.29.42.34.2.48.44-.06.17-.12.27.19.25.29.31a.61.61,0,0,1,.18.3c-.16,0-.46-.16-.62-.18s-.28-.27-.48-.31-.11.15-.19.13l-.29-.05c-.11,0-.37-.31-.49-.33s-.28.22-.41.2a1.92,1.92,0,0,1-.63-.18l-.49-.23c-.1-.06-.07-.19-.17-.25s-.29-.06-.39-.12c-.37-.23-.72-.75-1-.91s-.38-.22-.62-.33-.19-.23-.34-.28c-.43-.14-.78-.42-1.28-.56a3.35,3.35,0,0,0-2.5.67s-.12,0-.16,0-.39.23-.56.35a5.85,5.85,0,0,1-.84.39c-.08.05-.09.2-.17.25s-.35.09-.47.17-.13.2-.24.28a3.06,3.06,0,0,1-.73.47,12.77,12.77,0,0,1-1.82.33c-.37,0-.62.31-1.16.31a3.83,3.83,0,0,1-2.35-.54C.77,25,.74,24.7.64,24.64c-.29-.2-.26-.59-.35-.89-.1-.06-.3-.07-.29-.25a4.27,4.27,0,0,1,1-2.19c.12-.22.39-.31.41-.59a8.13,8.13,0,0,1,.74-.91c.06-.1,0-.28,0-.39A13.2,13.2,0,0,1,4,17.29c.17-.16.29-.38.55-.41.1,0,.2,0,.26-.09a1.24,1.24,0,0,1,.51-.53c.6-.41,1.1-1,1.78-1.14.11,0,.17-.15.28-.2s.31,0,.41,0c.51-.23,1-.72,1.5-.79.1,0,.17-.16.22-.15.46,0,1-.37,1.44.06A1.73,1.73,0,0,1,12.21,14.22Zm3.55,5V19c-.2-.12-.29-.47-.55-.54-.05,0-.15.05-.16.11a1.75,1.75,0,0,0,.28.86c.06-.22.22-.21.31,0A.44.44,0,0,0,15.76,19.19Z"/><path class="cls-4" d="M63.6,25.81,61.48,28l-5.89-5.75a13.44,13.44,0,0,1-2.77,3.5,18,18,0,0,1-3.21,2.33l-2.06-2.35a12.2,12.2,0,0,0,3-2,11.58,11.58,0,0,0,2-2.44,9.68,9.68,0,0,0,1.15-2.61,10,10,0,0,0,.36-2.61V12H57.3v3.48a13.59,13.59,0,0,1-.13,1.95c-.08.61-.2,1.21-.33,1.8Zm6.73,10H67.26V20.24H60.84v-3h6.42V9.39h3.07Z"/><path class="cls-4" d="M98.17,24.25h-11V25.7h5.45v6.82H82.1v1.3H93.33v3H78.91V29.7h10.5V28.54H78.76V25.7h5.31V24.25H73.31V21.34H98.17Zm-5.8-9.35a4.85,4.85,0,0,1-.54,2.28A5.74,5.74,0,0,1,90.4,19a7,7,0,0,1-2.2,1.13,8.85,8.85,0,0,1-2.74.4,8.6,8.6,0,0,1-2.62-.38A6.73,6.73,0,0,1,80.65,19a5.37,5.37,0,0,1-1.47-1.75,5,5,0,0,1-.53-2.34,5.21,5.21,0,0,1,.52-2.36,5.34,5.34,0,0,1,1.45-1.82,6.34,6.34,0,0,1,2.15-1.16,8.66,8.66,0,0,1,2.69-.4,8.75,8.75,0,0,1,2.69.4,6.74,6.74,0,0,1,2.19,1.16,5.46,5.46,0,0,1,1.48,1.79A5,5,0,0,1,92.37,14.9Zm-3.19,0a2.49,2.49,0,0,0-1.1-2.14,4.79,4.79,0,0,0-5.24,0,2.5,2.5,0,0,0-1.06,2.16A2.41,2.41,0,0,0,82.84,17a4.34,4.34,0,0,0,2.62.76,4.77,4.77,0,0,0,2.62-.7A2.37,2.37,0,0,0,89.18,14.87Z"/><path class="cls-4" d="M124.3,26.14H99.46V23.21H124.3Zm-5.4,10.64h-3.1V30.73H104.68v-3H118.9Zm-.05-15.08h-14V10.27h13.87V13.2H107.88v1.25h10.44v3H107.88v1.37h11Z"/><path class="cls-4" d="M138.23,22.88H126.42V10.81h3.08v3.48h5.63V10.81h3.1ZM135.13,20V17.22H129.5V20ZM147,36.78H132.72V29.5h10.36V28H132.57V25.06h13.7v7.28H136v1.51h11Zm.23-12.56h-3V21.4h-5V18.5h5V16.41h-5V13.48h5V9.39h3Z"/><path class="cls-4" d="M166.13,25.9,164,28.1l-5.86-5.77a13.18,13.18,0,0,1-2.74,3.53,18.15,18.15,0,0,1-3.27,2.33l-2.06-2.35a14,14,0,0,0,3-2.12,11.7,11.7,0,0,0,2-2.41,10.74,10.74,0,0,0,1.12-2.58,9.67,9.67,0,0,0,.36-2.58V12h3.25v3.57a13.21,13.21,0,0,1-.13,1.93c-.09.61-.2,1.19-.33,1.75Zm6.35,9.89h-3.1V9.39h3.1Z"/><path class="cls-4" d="M52.19,45.74a1.33,1.33,0,0,1-.54,1.17,2.53,2.53,0,0,1-1.46.38l-.36,0-.36-.05-.34-.08-.32-.08v-.78l.22.09a3.12,3.12,0,0,0,.32.1,3.19,3.19,0,0,0,.41.09,3.62,3.62,0,0,0,.5,0,2.58,2.58,0,0,0,.4,0,.93.93,0,0,0,.34-.13.69.69,0,0,0,.24-.24.7.7,0,0,0,.09-.37.8.8,0,0,0-.08-.36.88.88,0,0,0-.22-.25,2.08,2.08,0,0,0-.29-.19l-.31-.15-.55-.26a3.77,3.77,0,0,1-.54-.34,1.63,1.63,0,0,1-.41-.42,1,1,0,0,1-.17-.56,1.2,1.2,0,0,1,.5-1.06,2.13,2.13,0,0,1,1.26-.34,2.3,2.3,0,0,1,.37,0l.36.06.32.09.28.07v.78a3.36,3.36,0,0,0-.56-.2,3.81,3.81,0,0,0-.82-.13,1,1,0,0,0-.61.17.6.6,0,0,0-.18.74,1.12,1.12,0,0,0,.18.2,1.2,1.2,0,0,0,.25.16l.3.15.54.26.39.21a3.51,3.51,0,0,1,.4.27,1.42,1.42,0,0,1,.31.4A1.47,1.47,0,0,1,52.19,45.74Z"/><path class="cls-4" d="M56,47.21H52.94V42h3v.7H53.75v1.45h2.1v.7h-2.1v1.69H56Z"/><path class="cls-4" d="M61.26,44.58a3.83,3.83,0,0,1-.13,1,2.72,2.72,0,0,1-.43.87,2.06,2.06,0,0,1-.74.59,2.41,2.41,0,0,1-1.09.22,2.44,2.44,0,0,1-1-.21,2.1,2.1,0,0,1-.74-.57,2.62,2.62,0,0,1-.46-.86,3.69,3.69,0,0,1-.15-1.07,3.4,3.4,0,0,1,.15-1,2.62,2.62,0,0,1,.46-.86,2.18,2.18,0,0,1,.74-.6,2.44,2.44,0,0,1,1-.21,2.57,2.57,0,0,1,1,.2,2,2,0,0,1,.75.58,2.39,2.39,0,0,1,.45.85A3.62,3.62,0,0,1,61.26,44.58Zm-.79,0a2.88,2.88,0,0,0-.1-.78,2.09,2.09,0,0,0-.29-.64,1.62,1.62,0,0,0-.5-.44,1.43,1.43,0,0,0-.71-.16,1.45,1.45,0,0,0-.66.15,1.67,1.67,0,0,0-.5.42,2.32,2.32,0,0,0-.32.65,2.88,2.88,0,0,0-.11.81,3.33,3.33,0,0,0,.09.78,2.26,2.26,0,0,0,.29.65,1.57,1.57,0,0,0,.5.46,1.43,1.43,0,0,0,.71.17,1.44,1.44,0,0,0,1.21-.6,2,2,0,0,0,.29-.65A3.12,3.12,0,0,0,60.47,44.57Z"/><path class="cls-4" d="M65.85,45.23a2.84,2.84,0,0,1-.09.69,2,2,0,0,1-.3.66,1.67,1.67,0,0,1-.6.51,2.38,2.38,0,0,1-1.91,0,1.52,1.52,0,0,1-.59-.49,1.88,1.88,0,0,1-.28-.67,3.42,3.42,0,0,1-.08-.7V42h.82v3.25a2.74,2.74,0,0,0,0,.5,1.3,1.3,0,0,0,.17.44.88.88,0,0,0,.34.32,1.08,1.08,0,0,0,.54.12,1.13,1.13,0,0,0,.54-.12,1,1,0,0,0,.34-.31,1.3,1.3,0,0,0,.19-.45,2.73,2.73,0,0,0,0-.5V42h.82Z"/><path class="cls-4" d="M70.11,47.2H67V42h.81V46.5h2.35Z"/><path class="cls-4" d="M78,47.2h-.74V43.13h0L75.85,47.2h-.73l-1.37-4.07h0V47.2H73V42h1.11l1.39,4.22h0L76.89,42H78Z"/><path class="cls-4" d="M82.19,47.21H79.12V42h3v.7H79.92v1.45H82v.7H79.92v1.69h2.27Z"/><path class="cls-4" d="M86.13,42.68H84.67v4.55h-.8V42.68H82.42V42h3.71Z"/><path class="cls-4" d="M90.25,47.22h-.82l-.21-1a2.58,2.58,0,0,0-.3-.77,1,1,0,0,0-.47-.41h-.69v-.7h.42a1.9,1.9,0,0,0,.41,0,1,1,0,0,0,.35-.12.72.72,0,0,0,.26-.26.93.93,0,0,0,.09-.44.65.65,0,0,0-.11-.4.68.68,0,0,0-.28-.25,1.08,1.08,0,0,0-.37-.13,2.15,2.15,0,0,0-.43,0h-.6v4.55h-.79V42h1.4a3.51,3.51,0,0,1,.72.07,1.86,1.86,0,0,1,.65.23,1.32,1.32,0,0,1,.65,1.22,1.36,1.36,0,0,1-.22.83,1.52,1.52,0,0,1-.55.49,2.78,2.78,0,0,1,.39.47,1.74,1.74,0,0,1,.26.67Z"/><path class="cls-4" d="M95.53,44.58a3.83,3.83,0,0,1-.13,1,2.72,2.72,0,0,1-.43.87,2.15,2.15,0,0,1-.74.59,2.75,2.75,0,0,1-2.13,0,2.14,2.14,0,0,1-.75-.57,2.61,2.61,0,0,1-.45-.86,3.69,3.69,0,0,1-.15-1.07,3.4,3.4,0,0,1,.15-1,2.61,2.61,0,0,1,.45-.86,2.21,2.21,0,0,1,.75-.6,2.44,2.44,0,0,1,1-.21,2.61,2.61,0,0,1,1,.2,2,2,0,0,1,.75.58,2.56,2.56,0,0,1,.45.85A3.62,3.62,0,0,1,95.53,44.58Zm-.79,0a3.33,3.33,0,0,0-.1-.78,2.1,2.1,0,0,0-.3-.64,1.48,1.48,0,0,0-.49-.44,1.46,1.46,0,0,0-.71-.16,1.43,1.43,0,0,0-.66.15,1.56,1.56,0,0,0-.5.42,2.08,2.08,0,0,0-.32.65,2.88,2.88,0,0,0-.11.81,3.33,3.33,0,0,0,.09.78,2,2,0,0,0,.29.65,1.65,1.65,0,0,0,.49.46,1.47,1.47,0,0,0,.72.17,1.42,1.42,0,0,0,.7-.16,1.32,1.32,0,0,0,.5-.44,2.05,2.05,0,0,0,.3-.65A3.61,3.61,0,0,0,94.74,44.57Z"/><path class="cls-4" d="M99.75,43.52a1.6,1.6,0,0,1-.17.77,1.45,1.45,0,0,1-.46.49,1.55,1.55,0,0,1-.62.26,3.25,3.25,0,0,1-.69.08h-.43V44.4h.42a2.73,2.73,0,0,0,.41,0,1.28,1.28,0,0,0,.36-.13.76.76,0,0,0,.25-.28.82.82,0,0,0,.1-.44.65.65,0,0,0-.11-.4.7.7,0,0,0-.28-.26,1.16,1.16,0,0,0-.38-.15,2,2,0,0,0-.42,0h-.61v4.54h-.79V42h1.41a3.51,3.51,0,0,1,.72.07,1.9,1.9,0,0,1,.64.25,1.38,1.38,0,0,1,.48.48A1.54,1.54,0,0,1,99.75,43.52Z"/><path class="cls-4" d="M104.86,44.58a3.83,3.83,0,0,1-.13,1,2.72,2.72,0,0,1-.43.87,2.06,2.06,0,0,1-.74.59,2.41,2.41,0,0,1-1.09.22,2.44,2.44,0,0,1-1-.21,2.1,2.1,0,0,1-.74-.57,2.43,2.43,0,0,1-.45-.86,3.38,3.38,0,0,1-.16-1.07,3.11,3.11,0,0,1,.16-1,2.43,2.43,0,0,1,.45-.86,2.18,2.18,0,0,1,.74-.6,2.44,2.44,0,0,1,1-.21,2.57,2.57,0,0,1,1,.2,2,2,0,0,1,.75.58,2.39,2.39,0,0,1,.45.85A3.62,3.62,0,0,1,104.86,44.58Zm-.79,0a2.88,2.88,0,0,0-.1-.78,1.87,1.87,0,0,0-.29-.64,1.62,1.62,0,0,0-.5-.44,1.43,1.43,0,0,0-.71-.16,1.45,1.45,0,0,0-.66.15,1.52,1.52,0,0,0-.49.42,2.1,2.1,0,0,0-.33.65,2.9,2.9,0,0,0-.1.81,3.33,3.33,0,0,0,.08.78,2.26,2.26,0,0,0,.29.65,1.57,1.57,0,0,0,.5.46,1.46,1.46,0,0,0,.71.17,1.39,1.39,0,0,0,.7-.16,1.43,1.43,0,0,0,.51-.44,1.84,1.84,0,0,0,.29-.65A3.12,3.12,0,0,0,104.07,44.57Z"/><path class="cls-4" d="M108.83,47.2h-3.16V42h.8V46.5h2.36Z"/><path class="cls-4" d="M110.16,47.21h-.82V42h.82Z"/><path class="cls-4" d="M114.5,42.68H113v4.55h-.81V42.68h-1.45V42h3.72Z"/><path class="cls-4" d="M119,47.2h-.88l-.54-1.54H115.8l-.56,1.54h-.82L116.3,42h.85ZM117.39,45l-.64-2.06h0L116,45Z"/><path class="cls-4" d="M123.31,47.21h-.94l-2-4.05h0v4.05h-.77V42h1l2,4.07h0V42h.77Z"/><path class="cls-4" d="M130.69,43.57h-.82a1.36,1.36,0,0,0-.08-.49.82.82,0,0,0-.22-.31.87.87,0,0,0-.33-.17,1.15,1.15,0,0,0-.37-.06,1.44,1.44,0,0,0-.62.13,1.48,1.48,0,0,0-.51.39,2,2,0,0,0-.33.62,2.73,2.73,0,0,0-.12.83,3.89,3.89,0,0,0,.06.62,2,2,0,0,0,.26.68,1.68,1.68,0,0,0,.53.57,1.59,1.59,0,0,0,.92.24,3,3,0,0,0,.43,0,1.64,1.64,0,0,0,.38-.1v-1.4h-1.25v-.72h2v2.56l-.17,0-.24.1-.32.11a3.91,3.91,0,0,1-.44.08,3.37,3.37,0,0,1-.58,0,2.32,2.32,0,0,1-1.1-.25,2.26,2.26,0,0,1-.76-.64,2.61,2.61,0,0,1-.44-.9,3.47,3.47,0,0,1-.14-1,3.64,3.64,0,0,1,.14-1,2.47,2.47,0,0,1,.45-.83,2.23,2.23,0,0,1,.76-.58,2.43,2.43,0,0,1,1-.21,2.21,2.21,0,0,1,.69.1,1.64,1.64,0,0,1,.58.32,1.38,1.38,0,0,1,.39.53A1.72,1.72,0,0,1,130.69,43.57Z"/><path class="cls-4" d="M136.14,44.57a3.85,3.85,0,0,1-.13,1,2.72,2.72,0,0,1-.43.87,2.06,2.06,0,0,1-.74.59,2.58,2.58,0,0,1-1.09.22,2.44,2.44,0,0,1-1-.21,1.94,1.94,0,0,1-.74-.58,2.57,2.57,0,0,1-.46-.85,3.71,3.71,0,0,1-.15-1.08,3.5,3.5,0,0,1,.15-1,2.84,2.84,0,0,1,.46-.86,2.17,2.17,0,0,1,.74-.59,2.62,2.62,0,0,1,2.08,0,2.14,2.14,0,0,1,.75.57,2.52,2.52,0,0,1,.45.86A3.55,3.55,0,0,1,136.14,44.57Zm-.79,0a3.27,3.27,0,0,0-.1-.78,2,2,0,0,0-.29-.64,1.62,1.62,0,0,0-.5-.44,1.59,1.59,0,0,0-1.37,0,1.44,1.44,0,0,0-.5.42,2.19,2.19,0,0,0-.32.65,2.86,2.86,0,0,0-.11.8,2.9,2.9,0,0,0,.1.79,1.81,1.81,0,0,0,.28.65,1.44,1.44,0,0,0,.5.45,1.36,1.36,0,0,0,.71.18A1.44,1.44,0,0,0,135,46a2,2,0,0,0,.29-.66A3.45,3.45,0,0,0,135.35,44.57Z"/><path class="cls-4" d="M140.83,42,139,47.21h-.88L136.28,42h.87l1.39,4.25h.05L140,42Z"/><path class="cls-4" d="M144.38,47.21h-3.07V42h3v.71h-2.2v1.45h2.11v.7h-2.11v1.69h2.27Z"/><path class="cls-4" d="M148.73,47.21h-.83l-.21-1a2.48,2.48,0,0,0-.29-.77,1,1,0,0,0-.48-.41h-.68v-.7h.41a2.73,2.73,0,0,0,.41,0,.86.86,0,0,0,.36-.13.67.67,0,0,0,.25-.25.93.93,0,0,0,.09-.44.72.72,0,0,0-.1-.4.68.68,0,0,0-.28-.25,1.14,1.14,0,0,0-.38-.13,2,2,0,0,0-.42,0H146v4.55h-.79V42h1.41a3.51,3.51,0,0,1,.72.07,2,2,0,0,1,.65.23,1.22,1.22,0,0,1,.46.47,1.3,1.3,0,0,1,.18.75,1.38,1.38,0,0,1-.22.83,1.41,1.41,0,0,1-.55.48,2.32,2.32,0,0,1,.39.47,1.87,1.87,0,0,1,.27.68Z"/><path class="cls-4" d="M153.31,47.21h-.94l-2-4.05h0v4.05h-.78V42h1l2,4.07h0V42h.77Z"/><path class="cls-4" d="M159.42,47.2h-.74V43.12h0l-1.37,4.08h-.73l-1.37-4.08h0V47.2h-.74V42h1.1l1.39,4.23h0L158.33,42h1.09Z"/><path class="cls-4" d="M163.63,47.21h-3.07V42h3v.71h-2.2v1.45h2.11v.7h-2.11v1.69h2.27Z"/><path class="cls-4" d="M168.19,47.21h-.94l-2-4.05h0v4.05h-.78V42h1l2,4.07h0V42h.78Z"/><path class="cls-4" d="M172.46,42.67H171v4.55h-.8V42.67h-1.45V42h3.71Z"/></g></svg>